<svg id="Layer_1" data-name="Layer 1" xmlns="http://www.w3.org/2000/svg" viewBox="0 0 80.86 80.86"><defs><style>.cls-1{fill:#fff;}.cls-2{fill:#00a99d;}</style></defs><title>social-twitter</title><circle class="cls-1" cx="40.43" cy="40.43" r="40.43"/><path class="cls-2" d="M554.23,296.56a20.42,20.42,0,0,1-5.88,1.61,10.28,10.28,0,0,0,4.5-5.66,20.5,20.5,0,0,1-6.5,2.48,10.25,10.25,0,0,0-17.45,9.34,29.07,29.07,0,0,1-21.11-10.7A10.25,10.25,0,0,0,511,307.3a10.18,10.18,0,0,1-4.64-1.28s0,0.09,0,.13a10.25,10.25,0,0,0,8.21,10,10.28,10.28,0,0,1-4.62.18,10.25,10.25,0,0,0,9.57,7.11,20.67,20.67,0,0,1-15.16,4.24,29,29,0,0,0,15.7,4.6c18.83,0,29.13-15.6,29.13-29.14,0-.44,0-0.89,0-1.32a20.76,20.76,0,0,0,5.11-5.3h0Zm0,0" transform="translate(-488.84 -271.61)"/></svg>