<?xml version="1.0" ?><svg data-name="Layer 1" id="Layer_1" viewBox="0 0 100 100" xmlns="http://www.w3.org/2000/svg"><title/><path d="M78.5,6.917h-57a13.01474,13.01474,0,0,0-13,13v59a15.01672,15.01672,0,0,0,15,15h53a15.01673,15.01673,0,0,0,15-15v-59A13.01474,13.01474,0,0,0,78.5,6.917Zm-57,6h57a7.00818,7.00818,0,0,1,7,7V70.97266a8.13837,8.13837,0,0,1-8.12939,8.12891H22.62939A8.13837,8.13837,0,0,1,14.5,70.97266V19.917A7.00818,7.00818,0,0,1,21.5,12.917Zm55,75h-53a9.01015,9.01015,0,0,1-9-9V78.54858a11.08921,11.08921,0,0,0,8.12939,3.553H77.37061A11.0892,11.0892,0,0,0,85.5,78.54858V78.917A9.01015,9.01015,0,0,1,76.5,87.917Z" fill="#484949"/><path d="M50.0008,20.49841A25.50109,25.50109,0,0,0,39.76445,69.3558a22.40172,22.40172,0,0,1,.44319-5.8539c0.491-2.07405,3.28086-13.89981,3.28086-13.89981a9.77123,9.77123,0,0,1-.81623-4.03173c0-3.77666,2.19362-6.6,4.92129-6.6,2.318,0,3.43869,1.73927,3.43869,3.82608,0,2.33072-1.489,5.81882-2.251,9.04867a3.946,3.946,0,0,0,4.02057,4.91013c4.832,0,8.08577-6.203,8.08577-13.55706,0-5.58767-3.7639-9.76925-10.60939-9.76925a12.07225,12.07225,0,0,0-12.55272,12.21,7.368,7.368,0,0,0,1.68028,5.0026,1.22717,1.22717,0,0,1,.36507,1.42043c-0.118.47188-.39855,1.599-0.51652,2.04536a0.87608,0.87608,0,0,1-1.277.63768c-3.563-1.45072-5.221-5.35332-5.221-9.74055,0-7.24244,6.10737-15.93082,18.22647-15.93082,9.73417,0,16.146,7.04636,16.146,14.60923,0,10.00359-5.56535,17.4772-13.76272,17.4772-2.75478,0-5.34535-1.489-6.22853-3.17564,0,0-1.4826,5.87622-1.79347,7.0081a21.51826,21.51826,0,0,1-2.56666,5.46332A25.50069,25.50069,0,1,0,50.0008,20.49841Z" fill="#484949"/></svg>