<svg id="Layer_1" data-name="Layer 1" xmlns="http://www.w3.org/2000/svg" viewBox="0 0 80.86 80.86"><defs><style>.cls-1{fill:#fff;}.cls-2{fill:#00a99d;}</style></defs><title>social-pinterest</title><circle class="cls-1" cx="40.43" cy="40.43" r="40.43"/><path class="cls-2" d="M331.64,323c-3-.23-4.2-1.7-6.52-3.11-1.28,6.69-2.83,13.11-7.45,16.46-1.43-10.12,2.09-17.71,3.73-25.78-2.79-4.69.34-14.13,6.21-11.8,7.23,2.86-6.26,17.44,2.8,19.26,9.46,1.9,13.32-16.41,7.45-22.36-8.47-8.6-24.66-.2-22.67,12.11,0.49,3,3.59,3.92,1.24,8.08-5.42-1.2-7-5.48-6.83-11.18,0.34-9.33,8.39-15.87,16.46-16.77,10.21-1.14,19.8,3.75,21.12,13.36,1.49,10.84-4.61,22.59-15.53,21.74h0Zm0,0" transform="translate(-288.04 -271.61)"/></svg>