<?xml version="1.0" ?><svg data-name="Layer 1" id="Layer_1" viewBox="0 0 100 100" xmlns="http://www.w3.org/2000/svg"><title/><g><path d="M78.5,6.5h-57a13.01474,13.01474,0,0,0-13,13v59a15.01672,15.01672,0,0,0,15,15h53a15.01673,15.01673,0,0,0,15-15v-59A13.01474,13.01474,0,0,0,78.5,6.5Zm-57,6h57a7.00818,7.00818,0,0,1,7,7V70.55566a8.13837,8.13837,0,0,1-8.12939,8.12891H22.62939A8.13837,8.13837,0,0,1,14.5,70.55566V19.5A7.00818,7.00818,0,0,1,21.5,12.5Zm55,75h-53a9.01015,9.01015,0,0,1-9-9V78.13158a11.08921,11.08921,0,0,0,8.12939,3.553H77.37061A11.0892,11.0892,0,0,0,85.5,78.13158V78.5A9.01015,9.01015,0,0,1,76.5,87.5Z" fill="#484949"/><path d="M26.53607,59.24084a26.70628,26.70628,0,0,0,14.4668,4.24023c17.35962,0,26.85132-14.37994,26.85132-26.85132q0-.61349-0.02612-1.22229a19.11431,19.11431,0,0,0,4.708-4.88361,18.77766,18.77766,0,0,1-5.42047,1.48566,9.454,9.454,0,0,0,4.1496-5.22162,18.89072,18.89072,0,0,1-5.99286,2.29144A9.44517,9.44517,0,0,0,49.192,37.68676a26.79582,26.79582,0,0,1-19.45313-9.86053,9.44915,9.44915,0,0,0,2.92084,12.60022,9.4107,9.4107,0,0,1-4.27478-1.18121c-0.001.03925-.001,0.07935-0.001,0.11951a9.44479,9.44479,0,0,0,7.571,9.2536,9.4876,9.4876,0,0,1-2.48663.33057,9.35313,9.35313,0,0,1-1.776-.16992,9.44776,9.44776,0,0,0,8.8157,6.55406A19.0425,19.0425,0,0,1,26.53607,59.24084Z" fill="#484949"/></g></svg>