<?xml version="1.0" ?><svg data-name="Layer 1" id="Layer_1" viewBox="0 0 100 100" xmlns="http://www.w3.org/2000/svg"><title/><path d="M78.5,6.917h-57a13.01474,13.01474,0,0,0-13,13v59a15.01672,15.01672,0,0,0,15,15h53a15.01673,15.01673,0,0,0,15-15v-59A13.01474,13.01474,0,0,0,78.5,6.917Zm-57,6h57a7.00818,7.00818,0,0,1,7,7V70.97266a8.13837,8.13837,0,0,1-8.12939,8.12891H22.62939A8.13837,8.13837,0,0,1,14.5,70.97266V19.917A7.00818,7.00818,0,0,1,21.5,12.917Zm55,75h-53a9.01015,9.01015,0,0,1-9-9V78.54858a11.08921,11.08921,0,0,0,8.12939,3.553H77.37061A11.0892,11.0892,0,0,0,85.5,78.54858V78.917A9.01015,9.01015,0,0,1,76.5,87.917Z" fill="#484949"/><path d="M71.9,27a4.86527,4.86527,0,0,0-4-3.96A1.0019,1.0019,0,0,1,67.66,23H32.34c-0.2.04-.41992,0.08-0.62,0.12A4.87048,4.87048,0,0,0,28.04,27.3a1.00391,1.00391,0,0,1-.04.24V64.46c0.04,0.22009.08,0.46008,0.12,0.70007a4.877,4.877,0,0,0,4,3.79993,1.568,1.568,0,0,1,.28.04H67.6c0.24-.04.46008-0.08,0.68005-0.12a4.88257,4.88257,0,0,0,3.62-3.86c0.03992-.20007.05994-0.42,0.1-0.62V27.6C71.96,27.4,71.93994,27.2,71.9,27ZM50,36.68005A9.33461,9.33461,0,1,1,41.08,45.86,9.14655,9.14655,0,0,1,50,36.68005ZM67.24,62.2A1.8287,1.8287,0,0,1,65.48,64.02H34.5A1.8256,1.8256,0,0,1,32.76,62.2V41.66h4.17993A14.88541,14.88541,0,0,0,38.02,52.88a13.63161,13.63161,0,0,0,5.29993,5.6,13.21806,13.21806,0,0,0,14.36011-.64A14.44458,14.44458,0,0,0,63.58,47.7,15.06525,15.06525,0,0,0,63.04,41.66h4.2V62.2Zm0-29.24A1.81015,1.81015,0,0,1,65.54,34.8c-0.72009.0199-1.44006,0-2.16,0-0.68005,0-1.34.0199-2.02,0.0199a1.81417,1.81417,0,0,1-1.74-1.24,2.51663,2.51663,0,0,1-.1-0.65991c-0.02-1.44006,0-2.88,0-4.32007a1.80265,1.80265,0,0,1,1.78-1.86H65.46a1.8153,1.8153,0,0,1,1.78,1.86v4.36Z" fill="#484949"/></svg>