<?xml version="1.0" ?><svg data-name="Layer 1" id="Layer_1" viewBox="0 0 100 100" xmlns="http://www.w3.org/2000/svg"><title/><path d="M78.5,6.917h-57a13.01474,13.01474,0,0,0-13,13v59a15.01672,15.01672,0,0,0,15,15h53a15.01673,15.01673,0,0,0,15-15v-59A13.01474,13.01474,0,0,0,78.5,6.917Zm-57,6h57a7.00818,7.00818,0,0,1,7,7V70.97266a8.13837,8.13837,0,0,1-8.12939,8.12891H22.62939A8.13837,8.13837,0,0,1,14.5,70.97266V19.917A7.00818,7.00818,0,0,1,21.5,12.917Zm55,75h-53a9.01015,9.01015,0,0,1-9-9V78.54858a11.08921,11.08921,0,0,0,8.12939,3.553H77.37061A11.0892,11.0892,0,0,0,85.5,78.54858V78.917A9.01015,9.01015,0,0,1,76.5,87.917Z" fill="#484949"/><path d="M44.24982,66.72778h8.9389V45.223H59.2204L60,37.62317H53.18872V33.15594a1.819,1.819,0,0,1,1.895-2.06879h4.8067V23.71191l-6.61975-.02582c-7.34857,0-9.02087,5.50067-9.02087,9.02081v4.91626H40V45.223h4.24982V66.72778Z" fill="#484949"/></svg>