<svg id="Layer_1" data-name="Layer 1" xmlns="http://www.w3.org/2000/svg" viewBox="0 0 80.86 80.86"><defs><style>.cls-1{fill:#fff;}.cls-2{fill:#00a99d;}</style></defs><title>social-instagram</title><circle class="cls-1" cx="40.43" cy="40.43" r="40.43"/><path class="cls-2" d="M445.26,291.55H412.48a4.11,4.11,0,0,0-4.1,4.1v32.78a4.11,4.11,0,0,0,4.1,4.1h32.78a4.11,4.11,0,0,0,4.1-4.1V295.65a4.11,4.11,0,0,0-4.1-4.1h0Zm-16.39,12.3a8.19,8.19,0,1,1-8.2,8.2,8.21,8.21,0,0,1,8.2-8.2h0ZM413.5,328.43a1,1,0,0,1-1-1V310h4.3a6.84,6.84,0,0,0-.21,2.05,12.3,12.3,0,1,0,24.59,0A6.85,6.85,0,0,0,441,310h4.3v17.42a1,1,0,0,1-1,1H413.5Zm31.76-27.65a1,1,0,0,1-1,1h-4.1a1,1,0,0,1-1-1v-4.1a1,1,0,0,1,1-1h4.1a1,1,0,0,1,1,1v4.1Zm0,0" transform="translate(-388.44 -271.61)"/></svg>