<svg id="Layer_1" data-name="Layer 1" xmlns="http://www.w3.org/2000/svg" viewBox="0 0 531 450"><defs><style>.cls-1{fill:#FFF;}.cls-2{fill:none;}</style></defs><title>anchor</title><path class="cls-1" d="M324.34,577.61l-49.45-10.72a1.49,1.49,0,0,0-1.47,2.4L286,584.61c-12.51,1.77-26-.6-37-5.34-18.36-7.91-32.35-23.25-43-39.75-3.38-5.22-7.7-11.27-9.44-17.28L360.79,358,397,394.16a11.32,11.32,0,1,0,8.53-8.53l-36.16-36.16,11.75-11.75,23.18-23.17A30.66,30.66,0,1,0,385,296.25L362.3,319,350.55,330.7l-37.14-37.15a11.32,11.32,0,1,0-8.53,8.53L342,339.23,178.61,502.64c-3.27.32-6.92-2.48-9.66-4-3.21-1.76-6.35-3.65-9.44-5.61a123,123,0,0,1-25.79-21.53c-14.29-15.91-21.94-37.25-19-58.26l15,12.36a1.49,1.49,0,0,0,1.73.12,1.49,1.49,0,0,0,.68-1.58L121.42,374.7a1.55,1.55,0,0,0-2.53-.71L84,410.58a1.49,1.49,0,0,0,1.28,2.5L106,410.16C73.61,457,140.14,515.87,131.91,564.75a36.21,36.21,0,0,0,2.39,2.39c48.87-8.23,107.71,58.29,154.58,25.94L286,613.8a1.49,1.49,0,0,0,2.5,1.29L325,580.15A1.55,1.55,0,0,0,324.34,577.61ZM399.23,271a20.4,20.4,0,1,1,0,28.84A20.42,20.42,0,0,1,399.23,271Zm-289,138.6,0.17,0.14-0.33-.12ZM289.33,588.62l0.14,0.17,0,0.15Z" transform="translate(-39.7 -212.3)"/><rect class="cls-1" x="297.24" y="278.15" width="26.54" height="245.43" transform="translate(-232.21 124.68) rotate(-45)"/><path class="cls-1" d="M193,256.18a4.94,4.94,0,0,0-7,0l-20.17,20.17a4.94,4.94,0,0,0,0,7l65.41,65.41a4.94,4.94,0,0,0,7,0l20.17-20.17a4.94,4.94,0,0,0,0-7Z" transform="translate(-39.7 -212.3)"/><path class="cls-1" d="M435.17,439.41L349,525.53a4.36,4.36,0,0,0,0,6.15l81.85,81.85a4.35,4.35,0,0,0,6.15,0l86.13-86.13a4.35,4.35,0,0,0,0-6.15l-81.86-81.85A4.35,4.35,0,0,0,435.17,439.41Zm12.29,142.52-10.87,10.87-65-65L382.5,517Zm18.32-18.33-10.87,10.87-65-65,10.87-10.87Zm18.33-18.32-10.87,10.87-65-65,10.87-10.87Zm18.32-18.33-10.87,10.87-65-65L437.47,462Z" transform="translate(-39.7 -212.3)"/><rect id="_Slice_" data-name="&lt;Slice&gt;" class="cls-2" width="531" height="450"/></svg>